# xmcd
#
# Track frame offsets:
#	150
#	13619
#	28439
#	42112
#	58078
#	75919
#	85660
#	99812
#	114160
#	128023
#
# Disc length: 1877 seconds
#
# Revision: 0
# Processed by: cddbd v1.5.2PL0 Copyright (c) Steve Scherf et al.
# Submitted via: EasyCDDAExtractor 16.0.9.1
#
DISCID=6807530a
DTITLE=Mercedes Ben Salah y Manolo Peña - Estamos celebrando Hace 25 años
DYEAR=2015
DGENRE=Regional
TTITLE0=Tao Tao
TTITLE1=Cigana
TTITLE2=Aupa la Jota
TTITLE3=Tus Desprecios
TTITLE4=R. Plata
TTITLE5=Albrum
TTITLE6=Mesonera
TTITLE7=Fiesta en Alsasua
TTITLE8=Hablame
TTITLE9=E. Dalle
EXTD=
EXTT0=
EXTT1=
EXTT2=
EXTT3=
EXTT4=
EXTT5=
EXTT6=
EXTT7=
EXTT8=
EXTT9=
PLAYORDER=
